<?xml version="1.0" standalone="no"?>
<!DOCTYPE svg PUBLIC "-//W3C//DTD SVG 20010904//EN"
 "http://www.w3.org/TR/2001/REC-SVG-20010904/DTD/svg10.dtd">
<svg version="1.0" xmlns="http://www.w3.org/2000/svg"
 width="700.000000pt" height="700.000000pt" viewBox="0 0 700.000000 700.000000"
 preserveAspectRatio="xMidYMid meet">
<metadata>
Created by potrace 1.14, written by Peter Selinger 2001-2017
</metadata>
<g transform="translate(0.000000,700.000000) scale(0.100000,-0.100000)"
fill="#000000" stroke="none">
<path d="M3219 6985 c-2 -1 -38 -6 -79 -10 -41 -3 -82 -8 -90 -10 -8 -2 -38
-7 -66 -10 -28 -3 -61 -8 -75 -10 -364 -70 -640 -160 -913 -297 -157 -78 -243
-130 -456 -275 -22 -15 -156 -121 -243 -193 -102 -82 -414 -394 -532 -530
-142 -164 -220 -287 -360 -568 -194 -390 -297 -687 -340 -987 -4 -22 -8 -51
-10 -64 -28 -166 -28 -885 0 -1061 38 -245 66 -357 133 -545 84 -235 260 -616
363 -785 118 -194 202 -293 519 -610 362 -362 447 -426 820 -611 85 -42 171
-83 190 -92 19 -8 58 -25 85 -37 181 -82 432 -170 550 -195 79 -16 99 -19 245
-40 29 -4 163 -15 259 -20 83 -5 487 -5 560 0 115 8 220 16 243 20 12 2 46 6
73 10 129 16 281 54 451 110 739 246 1346 689 1790 1305 141 195 265 422 383
697 57 135 144 378 154 433 3 14 12 52 20 85 17 65 19 73 41 215 26 165 31
256 31 600 0 397 -12 543 -65 779 -22 100 -97 334 -137 425 -14 34 -35 84 -47
111 -41 98 -190 391 -239 470 -178 287 -301 442 -527 665 -155 154 -172 169
-295 265 -352 277 -756 488 -1177 614 -123 37 -260 72 -333 86 -127 22 -208
35 -255 41 -30 3 -79 9 -108 13 -52 8 -556 13 -563 6z m-1349 -1551 c58 -14
112 -27 120 -29 43 -9 405 -101 615 -155 132 -34 245 -63 250 -64 16 -4 57
-15 250 -66 377 -100 642 -170 700 -185 33 -9 101 -27 150 -40 50 -13 124 -32
165 -43 41 -11 145 -39 230 -61 85 -22 182 -47 215 -56 73 -20 163 -43 555
-146 436 -115 515 -144 524 -192 34 -163 50 -584 50 -1277 1 -544 -10 -927
-29 -1065 -11 -86 -16 -101 -40 -122 -67 -60 -212 -64 -2040 -64 -1928 0
-2115 6 -2198 71 -71 56 -78 169 -77 1230 0 941 6 1112 41 1227 9 27 17 33 57
42 105 23 421 37 1102 46 372 5 1833 18 1948 17 41 0 71 2 69 5 -3 2 -45 15
-94 28 -143 37 -353 93 -418 110 -33 9 -67 18 -75 20 -8 2 -58 15 -110 29 -52
14 -131 34 -175 46 -44 12 -123 32 -175 46 -243 65 -326 86 -340 89 -20 5
-489 130 -560 150 -85 24 -636 174 -720 196 -152 41 -204 63 -214 90 -5 15 -6
39 -2 54 10 38 68 95 98 95 12 0 70 -12 128 -26z"/>
<path d="M2509 4046 c-2 -3 -24 -7 -49 -11 -103 -15 -249 -80 -340 -150 -151
-117 -259 -278 -314 -468 -33 -112 -39 -160 -39 -277 2 -283 122 -520 338
-669 310 -215 679 -224 977 -24 83 56 198 165 256 243 144 194 198 449 143
665 -82 314 -372 596 -702 682 -27 7 -264 15 -270 9z"/>
<path d="M3911 2592 c-51 -28 -73 -74 -69 -148 8 -129 103 -189 219 -138 103
45 109 232 9 286 -44 23 -116 23 -159 0z"/>
<path d="M4455 2596 c-60 -26 -87 -144 -51 -215 46 -88 186 -113 259 -45 30
28 49 86 41 127 -19 106 -151 176 -249 133z"/>
<path d="M5018 2594 c-53 -22 -72 -70 -69 -173 1 -26 10 -43 39 -71 33 -31 47
-37 89 -39 60 -2 98 11 114 40 14 27 14 154 0 191 -21 54 -106 80 -173 52z"/>
</g>
</svg>
